<svg width="56" height="56" viewBox="0 0 56 56" fill="none" xmlns="http://www.w3.org/2000/svg">
<g clip-path="url(#clip0_361_7162)">
<circle cx="28" cy="28" r="28" fill="#4368FF"/>
<path fill-rule="evenodd" clip-rule="evenodd" d="M37.297 34.7462C39.2382 32.224 40.1531 29.0512 39.8555 25.8733C39.5579 22.6954 38.0702 19.7511 35.6951 17.6394C33.32 15.5277 30.2359 14.4073 27.0702 14.506C23.9045 14.6047 20.8951 15.9152 18.6541 18.1709C16.4111 20.4281 15.1065 23.4623 15.0062 26.6552C14.9059 29.8481 16.0174 32.9594 18.1142 35.3551C20.211 37.7508 23.1353 39.2505 26.2912 39.5487C29.447 39.8469 32.5969 38.921 35.099 36.9599L35.1659 37.0305L40 41.72C40.1446 41.8657 40.3163 41.9814 40.5053 42.0603C40.6943 42.1392 40.8968 42.1798 41.1014 42.1798C41.3059 42.1798 41.5084 42.1392 41.6974 42.0603C41.8864 41.9814 42.0581 41.8657 42.2027 41.72C42.3474 41.5742 42.4621 41.4012 42.5404 41.2107C42.6186 41.0203 42.6589 40.8161 42.6589 40.61C42.6589 40.4038 42.6186 40.1997 42.5404 40.0093C42.4621 39.8188 42.3474 39.6458 42.2027 39.5L37.3671 34.8121L37.297 34.7462ZM34.0653 20.3908C34.9442 21.2623 35.6433 22.3006 36.122 23.4457C36.6008 24.5908 36.8499 25.8201 36.8549 27.0627C36.86 28.3054 36.6208 29.5367 36.1513 30.6857C35.6818 31.8347 34.9912 32.8786 34.1193 33.7573C33.2475 34.636 32.2117 35.332 31.0716 35.8052C29.9315 36.2784 28.7098 36.5194 27.4768 36.5143C26.2439 36.5093 25.0241 36.2582 23.8879 35.7757C22.7517 35.2932 21.7215 34.5887 20.8568 33.7029C19.1287 31.9327 18.1647 29.546 18.1747 27.0627C18.1848 24.5795 19.168 22.2008 20.9103 20.4448C22.6526 18.6889 25.0128 17.6979 27.4768 17.6878C29.9408 17.6777 32.3089 18.6492 34.0653 20.3908Z" fill="white"/>
</g>
<defs>
<clipPath id="clip0_361_7162">
<rect width="56" height="56" fill="white"/>
</clipPath>
</defs>
</svg>
