<svg width="24" height="24" viewBox="0 0 24 24" fill="none" xmlns="http://www.w3.org/2000/svg">
<path d="M4.80063 4.3329C4.59404 3.6955 3.92631 3.35404 3.30653 3.56271C2.68676 3.77138 2.35474 4.46569 2.56133 5.09929L4.59773 11.3936H3.67914C3.18848 11.3936 2.79375 11.7995 2.79375 12.3041C2.79375 12.8087 3.18848 13.2147 3.67914 13.2147H5.18799L7.27972 19.6683C7.44573 20.1805 7.92163 20.5182 8.44549 20.4992C8.96934 20.4803 9.41942 20.1047 9.54485 19.5811L11.0943 13.2147H12.7913L14.3407 19.5811C14.4661 20.1047 14.9162 20.4803 15.4401 20.4992C15.9639 20.5182 16.4398 20.1805 16.6058 19.6683L18.6976 13.2147H20.2064C20.6971 13.2147 21.0918 12.8087 21.0918 12.3041C21.0918 11.7995 20.6971 11.3936 20.2064 11.3936H19.2878L21.3279 5.09929C21.5345 4.46189 21.1988 3.77517 20.5827 3.56271C19.9666 3.35024 19.2952 3.6955 19.0886 4.3291L16.8014 11.3898H14.7871L13.0938 4.41636C12.9573 3.88141 12.4851 3.502 11.9428 3.502C11.4005 3.502 10.9283 3.88141 10.7991 4.42016L9.10215 11.3936H7.08789L4.80063 4.3329ZM7.67815 13.2147H8.65946L8.2389 14.9448L7.67815 13.2147ZM11.537 11.3936L11.9428 9.72041L12.3486 11.3936H11.537ZM15.2261 13.2147H16.2074L15.6467 14.9448L15.2261 13.2147Z" fill="black"/>
</svg>
