<svg width="19" height="17" viewBox="0 0 19 17" fill="none" xmlns="http://www.w3.org/2000/svg">
<path d="M2.30063 0.832895C2.09404 0.195499 1.42631 -0.145964 0.806534 0.0627077C0.18676 0.271379 -0.145261 0.965686 0.0613302 1.59929L2.09773 7.89358H1.17914C0.688482 7.89358 0.293745 8.29954 0.293745 8.80414C0.293745 9.30875 0.688482 9.71471 1.17914 9.71471H2.68799L4.77972 16.1683C4.94573 16.6805 5.42163 17.0182 5.94549 16.9992C6.46934 16.9803 6.91942 16.6047 7.04485 16.0811L8.59428 9.71471H10.2913L11.8407 16.0811C11.9661 16.6047 12.4162 16.9803 12.9401 16.9992C13.4639 17.0182 13.9398 16.6805 14.1058 16.1683L16.1976 9.71471H17.7064C18.1971 9.71471 18.5918 9.30875 18.5918 8.80414C18.5918 8.29954 18.1971 7.89358 17.7064 7.89358H16.7878L18.8279 1.59929C19.0345 0.961892 18.6988 0.275173 18.0827 0.0627077C17.4666 -0.149758 16.7952 0.195499 16.5886 0.829101L14.3014 7.88978H12.2871L10.5938 0.916364C10.4573 0.381406 9.98508 0.00200334 9.44278 0.00200334C8.90048 0.00200334 8.42827 0.381406 8.29915 0.920158L6.60215 7.89358H4.58789L2.30063 0.832895ZM5.17815 9.71471H6.15946L5.7389 11.4448L5.17815 9.71471ZM9.03697 7.89358L9.44278 6.22041L9.84858 7.89358H9.03697ZM12.7261 9.71471H13.7074L13.1467 11.4448L12.7261 9.71471Z" fill="black"/>
</svg>
